<svg xmlns="http://www.w3.org/2000/svg" width="40" height="40" viewBox="0 0 40 40" fill="none">
  <g clip-path="url(#clip0_1186_3752)">
    <path d="M6.66667 5H33.3333C33.7754 5 34.1993 5.17559 34.5118 5.48816C34.8244 5.80072 35 6.22464 35 6.66667V33.3333C35 33.7754 34.8244 34.1993 34.5118 34.5118C34.1993 34.8244 33.7754 35 33.3333 35H6.66667C6.22464 35 5.80072 34.8244 5.48816 34.5118C5.17559 34.1993 5 33.7754 5 33.3333V6.66667C5 6.22464 5.17559 5.80072 5.48816 5.48816C5.80072 5.17559 6.22464 5 6.66667 5ZM8.33333 8.33333V31.6667H31.6667V8.33333H8.33333ZM18.3383 26.6667L11.2667 19.595L13.6233 17.2383L18.3383 21.9533L27.765 12.525L30.1233 14.8817L18.3383 26.6667Z" fill="#1AFFC8"/>
  </g>
  <defs>
    <clipPath id="clip0_1186_3752">
      <rect width="40" height="40" fill="white"/>
    </clipPath>
  </defs>
</svg>