<svg xmlns="http://www.w3.org/2000/svg" width="30" height="30" viewBox="0 0 30 30" fill="none">
  <path d="M17.3925 18.225C17.1921 18.2739 16.9903 18.3172 16.7875 18.355C15.6868 18.5622 14.5566 18.5579 13.4575 18.3425C13.265 18.305 12.9925 18.2387 12.6412 18.145L11.49 19.6413C8.64875 19.55 7.56875 17.6462 7.56875 17.6462C7.56875 13.42 9.42 9.99375 9.42 9.99375C11.2712 8.5775 13.0325 8.61625 13.0325 8.61625L13.5363 9.2725C13.5827 9.26599 13.6294 9.26182 13.6763 9.26C14.6365 9.13271 15.6096 9.13692 16.5688 9.2725L17.1212 8.61625C17.1212 8.61625 18.8837 8.5775 20.7337 9.995C20.7337 9.995 22.5863 13.42 22.5863 17.6462C22.5863 17.6462 21.4925 19.5487 18.6512 19.6413L17.3925 18.2238V18.225ZM12.595 13.75C11.8438 13.75 11.25 14.3125 11.25 15C11.25 15.6875 11.8562 16.25 12.595 16.25C13.345 16.25 13.9388 15.6875 13.9388 15C13.9513 14.3125 13.3463 13.75 12.595 13.75ZM17.405 13.75C16.655 13.75 16.0612 14.3125 16.0612 15C16.0612 15.6875 16.6675 16.25 17.405 16.25C18.1562 16.25 18.75 15.6875 18.75 15C18.75 14.3125 18.1562 13.75 17.405 13.75ZM26.25 28.75L20.0125 22.5H23.75V5H6.25V22.5H20.0037L20.7162 25H6.25C5.58696 25 4.95107 24.7366 4.48223 24.2678C4.01339 23.7989 3.75 23.163 3.75 22.5V5C3.75 4.33696 4.01339 3.70107 4.48223 3.23223C4.95107 2.76339 5.58696 2.5 6.25 2.5H23.75C24.413 2.5 25.0489 2.76339 25.5178 3.23223C25.9866 3.70107 26.25 4.33696 26.25 5V28.75Z" fill="white" fill-opacity="0.6"/>
</svg>