<svg xmlns="http://www.w3.org/2000/svg" width="40" height="41" viewBox="0 0 40 41" fill="none">
  <g clip-path="url(#clip0_1200_4554)">
    <path d="M19.9999 3.8335C20.4419 3.8335 20.8659 4.00909 21.1784 4.32165C21.491 4.63421 21.6666 5.05814 21.6666 5.50016V10.5002C21.6666 10.9422 21.491 11.3661 21.1784 11.6787C20.8659 11.9912 20.4419 12.1668 19.9999 12.1668C19.5579 12.1668 19.134 11.9912 18.8214 11.6787C18.5088 11.3661 18.3333 10.9422 18.3333 10.5002V5.50016C18.3333 5.05814 18.5088 4.63421 18.8214 4.32165C19.134 4.00909 19.5579 3.8335 19.9999 3.8335ZM19.9999 28.8335C20.4419 28.8335 20.8659 29.0091 21.1784 29.3216C21.491 29.6342 21.6666 30.0581 21.6666 30.5002V35.5002C21.6666 35.9422 21.491 36.3661 21.1784 36.6787C20.8659 36.9912 20.4419 37.1668 19.9999 37.1668C19.5579 37.1668 19.134 36.9912 18.8214 36.6787C18.5088 36.3661 18.3333 35.9422 18.3333 35.5002V30.5002C18.3333 30.0581 18.5088 29.6342 18.8214 29.3216C19.134 29.0091 19.5579 28.8335 19.9999 28.8335ZM36.6666 20.5002C36.6666 20.9422 36.491 21.3661 36.1784 21.6787C35.8659 21.9912 35.4419 22.1668 34.9999 22.1668H29.9999C29.5579 22.1668 29.134 21.9912 28.8214 21.6787C28.5088 21.3661 28.3333 20.9422 28.3333 20.5002C28.3333 20.0581 28.5088 19.6342 28.8214 19.3217C29.134 19.0091 29.5579 18.8335 29.9999 18.8335H34.9999C35.4419 18.8335 35.8659 19.0091 36.1784 19.3217C36.491 19.6342 36.6666 20.0581 36.6666 20.5002ZM11.6666 20.5002C11.6666 20.9422 11.491 21.3661 11.1784 21.6787C10.8659 21.9912 10.4419 22.1668 9.99992 22.1668H4.99992C4.55789 22.1668 4.13397 21.9912 3.82141 21.6787C3.50885 21.3661 3.33325 20.9422 3.33325 20.5002C3.33325 20.0581 3.50885 19.6342 3.82141 19.3217C4.13397 19.0091 4.55789 18.8335 4.99992 18.8335H9.99992C10.4419 18.8335 10.8659 19.0091 11.1784 19.3217C11.491 19.6342 11.6666 20.0581 11.6666 20.5002ZM31.7849 32.2852C31.4724 32.5976 31.0485 32.7731 30.6066 32.7731C30.1646 32.7731 29.7408 32.5976 29.4283 32.2852L25.8933 28.7502C25.5897 28.4358 25.4217 28.0148 25.4255 27.5778C25.4293 27.1408 25.6045 26.7228 25.9136 26.4138C26.2226 26.1048 26.6406 25.9295 27.0776 25.9257C27.5146 25.9219 27.9356 26.0899 28.2499 26.3935L31.7849 29.9268C31.9399 30.0816 32.0628 30.2654 32.1467 30.4678C32.2306 30.6701 32.2737 30.887 32.2737 31.106C32.2737 31.325 32.2306 31.5419 32.1467 31.7442C32.0628 31.9466 31.9399 32.1304 31.7849 32.2852ZM14.1066 14.6068C13.794 14.9193 13.3702 15.0948 12.9283 15.0948C12.4863 15.0948 12.0625 14.9193 11.7499 14.6068L8.21658 11.0735C7.90385 10.761 7.72807 10.337 7.72791 9.89492C7.72776 9.4528 7.90324 9.02873 8.21575 8.716C8.52827 8.40326 8.95221 8.22748 9.39433 8.22732C9.83645 8.22717 10.2605 8.40265 10.5733 8.71516L14.1066 12.2502C14.419 12.5627 14.5946 12.9866 14.5946 13.4285C14.5946 13.8704 14.419 14.2943 14.1066 14.6068ZM8.21658 32.2852C7.90413 31.9726 7.72861 31.5488 7.72861 31.1068C7.72861 30.6649 7.90413 30.241 8.21658 29.9285L11.7516 26.3935C11.9053 26.2343 12.0892 26.1073 12.2926 26.02C12.4959 25.9326 12.7146 25.8867 12.9359 25.8847C13.1572 25.8828 13.3767 25.925 13.5815 26.0088C13.7863 26.0926 13.9724 26.2164 14.1289 26.3728C14.2854 26.5293 14.4092 26.7154 14.493 26.9202C14.5768 27.1251 14.6189 27.3445 14.617 27.5658C14.6151 27.7871 14.5691 28.0058 14.4818 28.2092C14.3944 28.4125 14.2674 28.5964 14.1083 28.7502L10.5749 32.2852C10.4201 32.4401 10.2363 32.5631 10.034 32.6469C9.83166 32.7308 9.61478 32.774 9.39575 32.774C9.17673 32.774 8.95985 32.7308 8.75752 32.6469C8.55519 32.5631 8.37137 32.4401 8.21658 32.2852ZM25.8933 14.6068C25.5808 14.2943 25.4053 13.8704 25.4053 13.4285C25.4053 12.9866 25.5808 12.5627 25.8933 12.2502L29.4266 8.71516C29.7391 8.40243 30.163 8.22665 30.6052 8.22649C31.0473 8.22634 31.4713 8.40182 31.7841 8.71433C32.0968 9.02684 32.2726 9.45079 32.2728 9.89291C32.2729 10.335 32.0974 10.7591 31.7849 11.0718L28.2499 14.6068C27.9374 14.9193 27.5135 15.0948 27.0716 15.0948C26.6296 15.0948 26.2058 14.9193 25.8933 14.6068Z" fill="#FECF0D"/>
  </g>
  <defs>
    <clipPath id="clip0_1200_4554">
      <rect width="40" height="40" fill="white" transform="translate(0 0.5)"/>
    </clipPath>
  </defs>
</svg>