<svg width="16" height="16" viewBox="0 0 16 16" fill="none" xmlns="http://www.w3.org/2000/svg">
<g clip-path="url(#clip0)">
<path d="M9.02496 7.88514C9.02496 10.399 7.00463 12.4368 4.51256 12.4368C2.02049 12.4368 0 10.3985 0 7.88514C0 5.37179 2.02033 3.33334 4.51256 3.33334C7.00478 3.33334 9.02496 5.37133 9.02496 7.88514Z" fill="white"/>
<path d="M13.9752 7.88521C13.9752 10.2514 12.965 12.1704 11.7189 12.1704C10.4728 12.1704 9.46265 10.2514 9.46265 7.88521C9.46265 5.51899 10.4727 3.60004 11.7188 3.60004C12.9649 3.60004 13.9751 5.51838 13.9751 7.88521" fill="white"/>
<path d="M16 7.88516C16 10.0047 15.6448 11.724 15.2065 11.724C14.7682 11.724 14.4131 10.0052 14.4131 7.88516C14.4131 5.76515 14.7683 4.04633 15.2065 4.04633C15.6446 4.04633 16 5.765 16 7.88516Z" fill="white"/>
</g>
<defs>
<clipPath id="clip0">
<rect width="16" height="16" fill="white"/>
</clipPath>
</defs>
</svg>
