<svg xmlns="http://www.w3.org/2000/svg" width="30" height="30" viewBox="0 0 30 30" fill="none">
  <path d="M15 25C17.6522 25 20.1957 23.9464 22.0711 22.0711C23.9464 20.1957 25 17.6522 25 15C25 12.3478 23.9464 9.8043 22.0711 7.92893C20.1957 6.05357 17.6522 5 15 5C12.3478 5 9.8043 6.05357 7.92893 7.92893C6.05357 9.8043 5 12.3478 5 15C5 17.6522 6.05357 20.1957 7.92893 22.0711C9.8043 23.9464 12.3478 25 15 25ZM15 27.5C8.09625 27.5 2.5 21.9037 2.5 15C2.5 8.09625 8.09625 2.5 15 2.5C21.9037 2.5 27.5 8.09625 27.5 15C27.5 21.9037 21.9037 27.5 15 27.5ZM11.1125 16.4625L7.99 15.4887C7.315 15.2825 7.31125 14.8175 8.14125 14.4837L20.3075 9.78375C21.0138 9.49625 21.4137 9.86 21.185 10.7712L19.1138 20.5462C18.9688 21.2425 18.55 21.4088 17.9688 21.0875L14.78 18.7275L13.2938 20.1625C13.1413 20.31 13.0175 20.4363 12.7825 20.4675C12.5487 20.5 12.3563 20.43 12.215 20.0425L11.1275 16.4538L11.1125 16.4637V16.4625Z" fill="white" fill-opacity="0.6"/>
</svg>