<svg xmlns="http://www.w3.org/2000/svg" width="30" height="30" viewBox="0 0 30 30" fill="none">
  <path d="M19.1249 6.9374C18.1749 6.93724 17.2627 7.31005 16.5848 7.97561C15.9068 8.64116 15.5173 9.54627 15.4999 10.4961L15.4649 12.4649C15.4629 12.5706 15.4385 12.6747 15.3934 12.7703C15.3483 12.8659 15.2835 12.9509 15.2032 13.0197C15.1229 13.0886 15.029 13.1396 14.9276 13.1696C14.8263 13.1996 14.7197 13.2078 14.6149 13.1936L12.6637 12.9286C10.0962 12.5786 7.63615 11.3961 5.27615 9.4299C4.52865 13.5674 5.98865 16.4336 9.5049 18.6449L11.6887 20.0174C11.7924 20.0826 11.8786 20.1722 11.9397 20.2785C12.0008 20.3847 12.035 20.5043 12.0391 20.6268C12.0433 20.7492 12.0175 20.8709 11.9638 20.981C11.9101 21.0912 11.8302 21.1865 11.7312 21.2586L9.74115 22.7124C10.9249 22.7861 12.0487 22.7336 12.9812 22.5486C18.8787 21.3711 22.7999 16.9336 22.7999 9.61365C22.7999 9.01615 21.5349 6.9374 19.1249 6.9374ZM12.9999 10.4499C13.0217 9.24496 13.3985 8.07324 14.0831 7.08143C14.7677 6.08962 15.7297 5.3218 16.8485 4.87411C17.9674 4.42642 19.1935 4.31875 20.3733 4.56458C21.5531 4.81042 22.6342 5.39883 23.4812 6.25615C24.3699 6.2499 25.1262 6.4749 26.8174 5.4499C26.3987 7.4999 26.1924 8.3899 25.2999 9.61365C25.2999 19.1661 19.4287 23.8111 13.4712 24.9999C9.38615 25.8149 3.44615 24.4761 1.74365 22.6987C2.61115 22.6311 6.13615 22.2524 8.17365 20.7611C6.4499 19.6249 -0.411348 15.5874 4.0974 4.7324C6.21365 7.20365 8.3599 8.88615 10.5349 9.77865C11.9824 10.3724 12.3374 10.3599 13.0012 10.4511L12.9999 10.4499Z" fill="white" fill-opacity="0.6"/>
</svg>